<?xml version="1.0" encoding="utf-8"?>
<!-- Generator: Adobe Illustrator 16.0.2, SVG Export Plug-In . SVG Version: 6.00 Build 0)  -->
<!DOCTYPE svg PUBLIC "-//W3C//DTD SVG 1.1//EN" "http://www.w3.org/Graphics/SVG/1.1/DTD/svg11.dtd">
<svg version="1.1" id="Capa_1" xmlns="http://www.w3.org/2000/svg" xmlns:xlink="http://www.w3.org/1999/xlink" x="0px" y="0px"
	 width="612px" height="792px" viewBox="0 0 612 792" enable-background="new 0 0 612 792" xml:space="preserve">
<g>
	<path fill="#F6F5F7" d="M521.181,488.549l84.969-182.515c12.341-29.61,6.94-67.937-33.637-72.698l-55.335-110.717
		c-5.496-11.039-18.548-15.989-29.966-11.417l-82.007,32.689c-1.563,0.616-2.7,1.752-4.051,2.653l-41.146-48.015
		c-4.501-5.259-11.086-8.267-18.003-8.267s-13.479,3.008-17.979,8.267L208.548,233.264c-0.189,0.213-0.237,0.498-0.402,0.734
		c-12.294-41.833-21.556-73.29-23.712-80.657c-9.19-31.197-25.701-63.081-78.572-63.081H23.688C10.612,90.261,0,100.873,0,113.948
		c0,13.076,10.612,23.688,23.688,23.688h82.173c19.329,0,25.63,3.625,33.092,29.065c7.959,27.028,110.907,377.514,110.907,377.514
		c0.237,0.758,0.498,1.517,0.805,2.298c1.09,2.63,27.289,64.881,93.046,64.881h185.571c13.099,0,23.688-10.588,23.688-23.688
		s-10.589-23.688-23.688-23.688H343.711c-31.126,0-46.286-29.208-48.82-34.632c-0.616-2.108-1.942-6.586-3.743-12.744h191.967
		C507.513,516.643,518.859,496.2,521.181,488.549z M563.085,281.066c-0.284,1.634-0.782,3.529-1.563,5.566l-17.197,36.953h-90.701
		v-42.52H563.085z M422.828,323.586h-63.957v-42.52h63.934v42.52H422.828z M328.077,323.586h-86.792l-11.299-35.934
		c-0.781-2.606-1.326-4.785-1.634-6.585h99.726V323.586z M250.949,354.38h77.128v40.27h-64.479L250.949,354.38z M358.871,354.38
		h63.934v40.27h-63.934V354.38z M453.623,354.38h76.369l-18.736,40.27h-57.633V354.38z M484.535,163.267l34.537,69.121
		c-13.241,0-28.235,0-44.344,0l-41.667-48.607L484.535,163.267z M342.006,150.356l70.306,82.031c-50.787,0-103.185,0-140.635,0
		L342.006,150.356z M288.968,467.964c-0.924,0-1.824-0.332-2.582-0.758l-13.123-41.762h54.791v42.52H288.968L288.968,467.964z
		 M358.871,425.444h63.934v42.52h-63.934V425.444z M453.623,467.964v-42.52H496.9l-19.779,42.52H453.623z M374.576,658.77
		c0,23.712-19.234,42.946-42.946,42.946c-23.711,0-42.946-19.234-42.946-42.946s19.235-42.946,42.946-42.946
		C355.342,615.823,374.576,635.058,374.576,658.77z M516.704,658.77c0,23.712-19.235,42.946-42.946,42.946
		c-23.712,0-42.946-19.234-42.946-42.946s19.234-42.946,42.946-42.946C497.469,615.823,516.704,635.058,516.704,658.77z"/>
</g>
</svg>
