<?xml version="1.0" standalone="no"?>
<!DOCTYPE svg PUBLIC "-//W3C//DTD SVG 20010904//EN"
 "http://www.w3.org/TR/2001/REC-SVG-20010904/DTD/svg10.dtd">
<svg version="1.0" xmlns="http://www.w3.org/2000/svg"
 width="4000.000000pt" height="2250.000000pt" viewBox="0 0 4000.000000 2250.000000"
 preserveAspectRatio="xMidYMid meet">

<g transform="translate(0.000000,2250.000000) scale(0.100000,-0.100000)"
fill="#000000" stroke="none">
<path d="M15725 12660 c-71 -11 -138 -35 -232 -85 -122 -65 -214 -139 -364
-292 -209 -215 -390 -469 -644 -903 -154 -261 -184 -308 -231 -358 -143 -152
-190 -505 -84 -634 35 -42 214 -182 714 -557 782 -588 1375 -1006 1591 -1122
100 -54 125 -52 298 34 73 36 140 68 149 70 37 12 43 -18 40 -198 -4 -220 1
-241 76 -300 207 -164 761 -487 1337 -781 394 -201 524 -257 591 -256 60 1 94
16 182 83 93 72 131 77 168 22 12 -18 26 -64 33 -107 14 -85 36 -121 82 -130
112 -22 645 -60 1094 -77 349 -14 407 -8 531 50 186 87 381 296 491 526 36 76
38 85 41 198 3 110 2 120 -21 160 -76 129 -259 251 -517 342 -117 42 -170 67
-268 127 -432 264 -1159 1037 -1724 1833 -183 258 -191 273 -481 925 -282 635
-393 850 -435 850 -44 0 -139 -132 -275 -380 -43 -80 -83 -149 -87 -154 -15
-15 -540 143 -750 226 -224 88 -397 204 -585 393 -60 60 -171 173 -245 251
-74 77 -157 155 -184 172 -95 61 -195 86 -291 72z m1368 -1032 c8 -13 26 -86
40 -163 215 -1168 281 -1506 297 -1543 26 -55 88 -88 146 -78 35 7 87 55 474
442 399 397 439 434 469 434 41 0 91 -24 112 -53 9 -12 57 -177 108 -367 51
-190 137 -513 193 -719 112 -417 113 -429 57 -487 -30 -31 -38 -34 -94 -34
-51 0 -65 4 -82 23 -11 12 -145 213 -297 447 -153 234 -290 437 -306 452 -16
15 -47 32 -68 39 -33 9 -44 9 -73 -6 -19 -9 -135 -125 -259 -256 -124 -132
-253 -266 -287 -299 -59 -58 -63 -60 -115 -60 -44 0 -61 5 -90 28 -20 15 -143
162 -274 327 -131 165 -375 473 -542 684 -275 346 -305 388 -310 427 -2 25 1
57 8 75 8 18 159 172 364 370 l350 339 83 0 c75 0 84 -2 96 -22z"/>
<path d="M21300 11846 c0 -7 -60 -288 -66 -308 -5 -17 21 -18 439 -18 244 0
465 -3 491 -6 72 -10 75 -23 36 -201 -40 -187 -57 -241 -80 -253 -16 -8 -600
-16 -600 -7 0 1 16 76 35 166 19 90 35 165 35 167 0 2 -86 4 -190 4 -143 0
-192 -3 -195 -12 -6 -17 -265 -1236 -265 -1248 0 -6 74 -10 190 -10 l190 0 7
28 c3 15 34 160 68 322 l62 295 301 0 c276 0 303 -1 319 -18 17 -17 16 -29
-40 -300 -31 -155 -60 -292 -63 -304 l-6 -23 194 0 194 0 68 323 c57 278 65
330 57 366 -5 23 -17 51 -26 61 -19 21 -95 50 -134 51 -18 0 -6 7 38 24 142
52 170 101 237 410 58 265 63 360 25 414 -13 18 -45 43 -70 55 -45 21 -58 21
-648 24 -332 1 -603 1 -603 -2z"/>
<path d="M22907 11097 c-87 -413 -157 -765 -157 -782 1 -96 54 -166 140 -184
69 -15 1010 -15 1079 0 100 21 179 95 220 203 10 28 85 364 166 746 80 382
150 712 155 733 l8 37 -186 -2 -186 -3 -137 -646 c-75 -355 -141 -659 -146
-675 -6 -18 -23 -36 -44 -46 -30 -16 -68 -18 -320 -18 -264 0 -289 1 -310 19
l-22 18 141 670 c78 369 142 673 142 677 0 3 -87 6 -192 6 l-193 0 -158 -753z"/>
<path d="M24869 11848 c0 -2 -83 -391 -183 -865 l-182 -863 177 0 c161 0 178
2 183 18 3 9 55 253 116 542 61 289 114 536 118 549 7 20 56 -59 333 -540
l325 -564 130 -3 130 -3 179 848 c98 467 181 856 183 866 4 16 -9 17 -176 17
l-180 0 -10 -42 c-6 -24 -54 -253 -108 -510 -54 -258 -101 -468 -104 -468 -4
0 -132 229 -286 510 l-279 509 -182 1 c-101 0 -183 -1 -184 -2z"/>
<path d="M26739 11848 c0 -2 -83 -391 -183 -865 l-182 -863 177 0 c161 0 178
2 183 18 3 9 55 253 116 542 61 289 114 536 118 549 7 20 56 -59 333 -540
l325 -564 130 -3 130 -3 179 848 c98 467 181 856 183 866 4 16 -9 17 -176 17
l-180 0 -10 -42 c-6 -24 -54 -253 -108 -510 -54 -258 -101 -468 -104 -468 -4
0 -132 229 -286 510 l-279 509 -182 1 c-101 0 -183 -1 -184 -2z"/>
<path d="M28620 11848 c-1 -2 -83 -390 -183 -863 l-182 -860 189 -3 c104 -1
191 -1 193 2 5 4 363 1695 363 1714 0 9 -45 12 -190 12 -104 0 -190 -1 -190
-2z"/>
<path d="M29369 11848 c0 -2 -83 -391 -183 -865 l-182 -863 177 0 c161 0 178
2 183 18 3 9 55 253 116 542 61 289 114 536 118 549 7 20 56 -59 333 -540
l325 -564 130 -3 130 -3 179 848 c98 467 181 856 183 866 4 16 -9 17 -176 17
l-180 0 -10 -42 c-6 -24 -54 -253 -108 -510 -54 -258 -101 -468 -104 -468 -4
0 -132 229 -286 510 l-279 509 -182 1 c-101 0 -183 -1 -184 -2z"/>
<path d="M31397 11835 c-101 -28 -169 -96 -206 -208 -38 -113 -272 -1246 -273
-1319 -1 -86 20 -124 87 -158 l50 -25 595 -3 595 -3 103 493 c57 271 103 496
102 501 0 4 -157 7 -349 7 l-350 0 -11 -57 c-6 -32 -18 -86 -26 -121 -8 -35
-14 -70 -14 -77 0 -12 31 -15 168 -17 l168 -3 -41 -195 -41 -195 -292 -3
c-191 -1 -300 1 -312 8 -13 7 -20 21 -20 39 0 34 186 915 201 953 22 54 8 53
517 58 l475 5 33 155 c18 85 33 161 33 168 1 18 -1124 16 -1192 -3z"/>
<path d="M25301 8954 c-100 -27 -147 -69 -195 -174 -30 -67 -136 -558 -136
-632 0 -73 24 -118 80 -145 44 -23 50 -23 426 -23 211 0 394 -4 407 -9 13 -5
27 -17 30 -26 4 -8 -8 -84 -25 -168 -25 -117 -37 -157 -55 -174 l-22 -23 -485
0 -486 0 -5 -22 c-17 -74 -65 -303 -65 -310 0 -13 1137 -10 1205 4 109 22 184
93 223 213 26 77 120 522 128 600 5 50 2 67 -18 105 -45 86 -36 85 -498 88
-268 2 -409 7 -417 14 -7 6 -13 20 -13 33 0 18 30 166 55 273 3 12 14 31 25
42 19 19 35 20 498 20 l478 0 32 153 c18 84 32 158 32 165 0 19 -1125 16
-1199 -4z"/>
<path d="M26860 8966 c0 -3 -81 -387 -180 -855 -99 -468 -180 -856 -180 -861
0 -7 66 -10 192 -8 l191 3 72 341 c39 188 75 349 78 358 6 14 40 16 342 16
261 0 335 -3 335 -12 0 -7 -33 -169 -73 -360 l-73 -348 192 0 192 0 11 48 c25
108 351 1658 351 1670 0 9 -45 12 -190 12 -104 0 -190 -1 -190 -2 -1 -2 -34
-156 -73 -343 l-73 -340 -343 -3 c-323 -2 -342 -1 -337 15 3 10 33 149 66 308
34 160 65 307 70 328 l8 37 -194 0 c-107 0 -194 -2 -194 -4z"/>
<path d="M28827 8955 c-101 -28 -169 -96 -206 -208 -38 -113 -272 -1246 -273
-1319 -1 -86 20 -124 87 -158 l50 -25 540 0 540 0 65 32 c79 40 127 100 158
199 26 82 260 1195 268 1274 12 114 -35 187 -136 209 -78 17 -1030 13 -1093
-4z m780 -332 c12 -7 24 -21 28 -32 5 -17 -157 -802 -190 -917 -26 -91 -18
-89 -333 -92 -152 -2 -286 -1 -299 3 -12 3 -29 16 -38 28 -13 21 -7 59 81 467
110 517 109 514 129 530 29 24 83 29 340 27 187 -1 266 -6 282 -14z"/>
<path d="M30437 8948 c-4 -13 -18 -79 -32 -148 -14 -69 -28 -133 -31 -143 -5
-16 28 -17 637 -15 l643 3 32 150 c18 83 33 156 33 163 1 9 -133 12 -638 12
l-639 0 -5 -22z"/>
<path d="M32241 8954 c-100 -27 -147 -69 -195 -174 -30 -67 -136 -558 -136
-632 0 -73 24 -118 80 -145 44 -23 50 -23 426 -23 211 0 394 -4 407 -9 13 -5
27 -17 30 -26 4 -8 -8 -84 -25 -168 -25 -117 -37 -157 -55 -174 l-22 -23 -485
0 -486 0 -5 -22 c-17 -74 -65 -303 -65 -310 0 -13 1137 -10 1205 4 109 22 184
93 223 213 26 77 120 522 128 600 5 50 2 67 -18 105 -45 86 -36 85 -498 88
-268 2 -409 7 -417 14 -7 6 -13 20 -13 33 0 18 30 166 55 273 3 12 14 31 25
42 19 19 35 20 498 20 l478 0 32 153 c18 84 32 158 32 165 0 19 -1125 16
-1199 -4z"/>
<path d="M30212 7888 c-73 -343 -132 -629 -132 -635 0 -10 135 -13 640 -13
352 0 640 2 640 3 0 9 61 304 66 320 5 16 -20 17 -435 17 -346 0 -441 3 -441
13 0 6 16 90 37 185 l36 172 318 0 c294 0 318 1 323 18 2 9 14 62 26 117 11
55 23 108 26 118 5 16 -14 17 -310 17 -173 0 -317 3 -319 8 -2 4 9 63 24 132
16 69 29 131 29 138 0 9 -46 12 -198 12 l-198 0 -132 -622z"/>
</g>
</svg>
